<svg width="24" height="24" viewBox="0 0 24 24" fill="none" xmlns="http://www.w3.org/2000/svg">
<g clip-path="url(#clip0_17871_1495)">
<path d="M10.374 0.75C10.0796 0.749925 9.79726 0.866868 9.58903 1.0751C9.38079 1.28334 9.26376 1.56581 9.26367 1.86038V6.84816C9.26473 7.00548 9.29918 7.16078 9.36473 7.30378C9.34693 7.52961 9.39857 7.75549 9.51272 7.95112L11.4698 11.3086L7.76663 13.9072L8.05228 11.628C8.07481 11.4451 8.05153 11.2596 7.98455 11.088C7.91756 10.9164 7.80898 10.7641 7.66856 10.645L4.56169 6.80419C4.46993 6.6908 4.35675 6.59661 4.22861 6.527C4.10047 6.45739 3.95987 6.41372 3.81486 6.39848C3.66984 6.38325 3.52325 6.39675 3.38345 6.43821C3.24365 6.47967 3.11339 6.54828 3.00009 6.64013L2.56941 6.98878C2.45589 7.08048 2.36156 7.19368 2.2918 7.32188C2.22204 7.45009 2.17823 7.5908 2.16286 7.73596C2.14749 7.88113 2.16087 8.0279 2.20224 8.16788C2.24361 8.30787 2.31214 8.43832 2.40394 8.55178L5.20613 12.0161L4.67878 16.2319C4.6511 16.4558 4.6922 16.6828 4.79662 16.8827C4.90104 17.0826 5.06382 17.246 5.26331 17.3511L7.01962 19.8575C7.05279 19.9042 7.08953 19.9483 7.1295 19.9893C7.14127 20.189 7.20668 20.3817 7.31884 20.5472C7.43099 20.7127 7.58573 20.8449 7.76672 20.9297L12.2812 23.0405C12.4276 23.1088 12.5871 23.1443 12.7486 23.1445C12.9248 23.2264 13.1194 23.2606 13.313 23.2436C13.5065 23.2266 13.6923 23.1591 13.8516 23.0478L17.937 20.1914C18.0565 20.1078 18.1584 20.0015 18.2369 19.8786C18.3153 19.7556 18.3688 19.6184 18.3942 19.4747C18.4197 19.3311 18.4166 19.1838 18.3851 19.0414C18.3537 18.8989 18.2945 18.7641 18.2109 18.6445L17.8931 18.1904C17.7247 17.9489 17.4672 17.7841 17.1774 17.7325C16.8876 17.6808 16.5891 17.7465 16.3477 17.915L12.9536 20.2896L10.185 18.9946L15.8379 15.0278C15.938 14.9568 16.0256 14.8696 16.0972 14.77C16.2509 14.7201 16.3919 14.6372 16.5103 14.5272C16.6288 14.4171 16.7217 14.2825 16.7828 14.1328L18.5274 9.8423L22.6437 7.74019C22.7736 7.67383 22.8892 7.58255 22.9838 7.47154C23.0784 7.36053 23.1502 7.23197 23.1951 7.09322C23.24 6.95447 23.2571 6.80823 23.2454 6.66287C23.2337 6.51751 23.1935 6.37587 23.127 6.24605L22.875 5.75095C22.8088 5.62105 22.7176 5.50546 22.6066 5.41079C22.4957 5.31612 22.3672 5.24422 22.2284 5.1992C22.0897 5.15418 21.9434 5.13691 21.798 5.1484C21.6525 5.15988 21.5108 5.19988 21.3809 5.26613L16.9424 7.5337C16.7485 7.63275 16.5881 7.78657 16.481 7.97602C16.3061 8.09858 16.1703 8.26898 16.0898 8.4668L14.8066 11.622L14.562 11.2734C14.543 11.1272 14.4952 10.9863 14.4213 10.8588L12.0396 6.7763V1.86038C12.0396 1.71451 12.0108 1.57008 11.955 1.43533C11.8991 1.30058 11.8173 1.17816 11.7142 1.07505C11.6111 0.971943 11.4887 0.890168 11.354 0.834395C11.2193 0.778622 11.0749 0.749945 10.9291 0.75H10.374H10.374ZM3.64453 17.625C3.26836 17.614 2.8938 17.6786 2.54305 17.815C2.19229 17.9514 1.87249 18.1568 1.60257 18.4191C1.33265 18.6814 1.11811 18.9951 0.971661 19.3418C0.825215 19.6885 0.749839 20.0611 0.75 20.4375C0.75 21.1835 1.04632 21.8989 1.57376 22.4264C2.10121 22.9539 2.81658 23.2503 3.5625 23.2503C4.30842 23.2503 5.02379 22.9539 5.55124 22.4264C6.07868 21.8989 6.375 21.1835 6.375 20.4375C6.37531 19.7055 6.09027 19.0023 5.58043 18.4771C5.07059 17.952 4.37612 17.6463 3.64453 17.625Z" fill="#E91111"/>
</g>
<defs>
<clipPath id="clip0_17871_1495">
<rect width="24" height="24" fill="white"/>
</clipPath>
</defs>
</svg>
